<svg xmlns="http://www.w3.org/2000/svg" xmlns:xlink="http://www.w3.org/1999/xlink" width="150px" height="39px" viewBox="0 0 148 39"><defs><clipPath id="clip1"><rect x="0" y="0" width="148" height="39"></rect></clipPath><g id="surface5" clip-path="url(#clip1)"><path style=" stroke:none;fill-rule:nonzero;fill:rgb(100%,100%,100%);fill-opacity:1;" d="M 3.949219 24.070312 C 2.84375 23.433594 2.054688 22.480469 1.5 21.289062 C 0.949219 20.097656 0.789062 18.1875 0.789062 15.726562 C 0.789062 12.386719 1.34375 10.003906 2.371094 8.496094 C 3.476562 6.984375 5.136719 6.269531 7.507812 6.269531 C 8.613281 6.269531 9.480469 6.429688 10.273438 6.824219 C 11.0625 7.144531 11.695312 7.699219 12.167969 8.496094 C 12.5625 7.777344 13.039062 7.222656 13.589844 6.90625 C 14.144531 6.585938 14.855469 6.347656 15.644531 6.347656 L 15.960938 6.347656 L 15.960938 10.320312 C 15.644531 10.320312 15.410156 10.242188 15.328125 10.242188 C 15.171875 10.242188 15.09375 10.242188 14.933594 10.242188 C 14.617188 10.242188 14.222656 10.320312 13.984375 10.402344 C 13.671875 10.480469 13.433594 10.640625 13.195312 10.796875 C 13.355469 11.433594 13.433594 12.148438 13.511719 12.863281 C 13.589844 13.660156 13.589844 14.535156 13.589844 15.40625 C 13.589844 18.507812 13.039062 20.8125 12.011719 22.402344 C 10.984375 23.910156 9.402344 24.703125 7.269531 24.703125 C 7.03125 24.703125 6.875 24.703125 6.714844 24.703125 C 6.558594 24.703125 6.480469 24.703125 6.402344 24.703125 C 6.085938 24.941406 5.769531 25.183594 5.609375 25.421875 C 5.453125 25.660156 5.375 25.976562 5.375 26.214844 C 5.375 26.453125 5.53125 26.691406 5.769531 26.929688 C 6.003906 27.089844 6.320312 27.246094 6.714844 27.246094 C 7.03125 27.328125 7.507812 27.328125 8.140625 27.40625 C 10.113281 27.644531 11.457031 27.882812 12.011719 28.121094 C 13.355469 28.679688 14.300781 29.3125 14.933594 30.027344 C 15.566406 30.746094 15.882812 31.699219 15.882812 32.808594 C 15.882812 34.636719 15.09375 36.066406 13.511719 37.261719 C 11.933594 38.371094 9.878906 38.929688 7.347656 38.929688 C 4.976562 38.929688 3.160156 38.53125 1.894531 37.816406 C 0.632812 37.101562 0 35.988281 0 34.636719 C 0 33.765625 0.316406 32.96875 0.949219 32.332031 C 1.582031 31.699219 2.609375 31.140625 3.871094 30.664062 C 3.082031 30.347656 2.449219 30.027344 2.054688 29.550781 C 1.660156 29.074219 1.421875 28.519531 1.421875 27.804688 C 1.421875 27.089844 1.660156 26.453125 2.054688 25.816406 C 2.449219 25.183594 3.082031 24.625 3.949219 24.070312 Z M 6.875 31.140625 C 6.085938 31.378906 5.453125 31.699219 4.976562 32.09375 C 4.503906 32.492188 4.265625 33.046875 4.265625 33.605469 C 4.265625 34.320312 4.582031 34.875 5.214844 35.273438 C 5.847656 35.671875 6.714844 35.828125 7.980469 35.828125 C 9.085938 35.828125 10.035156 35.589844 10.746094 35.195312 C 11.457031 34.71875 11.773438 34.160156 11.773438 33.527344 C 11.773438 32.808594 11.378906 32.253906 10.667969 31.9375 C 9.878906 31.460938 8.613281 31.222656 6.875 31.140625 Z M 7.191406 20.96875 C 7.902344 20.96875 8.453125 20.574219 8.769531 19.859375 C 9.085938 19.140625 9.167969 17.632812 9.167969 15.40625 C 9.167969 13.183594 9.007812 11.671875 8.769531 10.957031 C 8.453125 10.242188 7.980469 9.84375 7.191406 9.84375 C 6.402344 9.84375 5.925781 10.242188 5.609375 10.957031 C 5.292969 11.671875 5.136719 13.183594 5.136719 15.40625 C 5.136719 17.632812 5.292969 19.140625 5.609375 19.859375 C 5.925781 20.574219 6.402344 20.96875 7.191406 20.96875 Z M 7.191406 20.96875 "></path><path style=" stroke:none;fill-rule:nonzero;fill:rgb(100%,100%,100%);fill-opacity:1;" d="M 31.527344 14.929688 L 31.527344 22.796875 C 31.527344 25.738281 30.976562 27.964844 29.867188 29.394531 C 28.761719 30.824219 27.023438 31.460938 24.734375 31.460938 C 22.363281 31.460938 20.703125 30.746094 19.597656 29.394531 C 18.488281 27.964844 17.9375 25.816406 17.9375 22.796875 L 17.9375 14.929688 C 17.9375 11.992188 18.488281 9.765625 19.597656 8.414062 C 20.703125 6.984375 22.441406 6.269531 24.734375 6.269531 C 27.023438 6.269531 28.761719 6.984375 29.867188 8.414062 C 30.976562 9.765625 31.527344 11.992188 31.527344 14.929688 Z M 26.945312 13.421875 C 26.945312 12.230469 26.785156 11.433594 26.390625 10.878906 C 25.996094 10.320312 25.445312 10.082031 24.652344 10.082031 C 23.863281 10.082031 23.230469 10.320312 22.914062 10.878906 C 22.519531 11.433594 22.363281 12.230469 22.363281 13.421875 L 22.363281 24.226562 C 22.363281 25.421875 22.519531 26.214844 22.914062 26.769531 C 23.308594 27.328125 23.863281 27.566406 24.652344 27.566406 C 25.445312 27.566406 25.996094 27.328125 26.390625 26.769531 C 26.785156 26.214844 26.945312 25.421875 26.945312 24.226562 Z M 26.945312 13.421875 "></path><path style=" stroke:none;fill-rule:nonzero;fill:rgb(100%,100%,100%);fill-opacity:1;" d="M 49.070312 6.585938 L 49.070312 30.984375 L 44.882812 30.984375 L 44.882812 27.964844 C 44.011719 28.996094 43.144531 29.789062 42.351562 30.347656 C 41.484375 30.902344 40.695312 31.140625 39.902344 31.140625 C 38.402344 31.140625 37.296875 30.585938 36.742188 29.550781 C 36.109375 28.519531 35.796875 26.613281 35.796875 23.75 L 35.796875 6.585938 L 40.21875 6.585938 L 40.21875 23.988281 C 40.21875 25.101562 40.378906 25.898438 40.613281 26.375 C 40.851562 26.851562 41.328125 27.089844 42.039062 27.089844 C 42.433594 27.089844 42.828125 26.929688 43.300781 26.613281 C 43.777344 26.292969 44.171875 25.898438 44.566406 25.339844 L 44.566406 6.585938 Z M 49.070312 6.585938 "></path><path style=" stroke:none;fill-rule:nonzero;fill:rgb(100%,100%,100%);fill-opacity:1;" d="M 53.890625 30.984375 L 53.890625 6.585938 L 58.078125 6.585938 L 58.078125 9.84375 C 58.710938 8.652344 59.421875 7.777344 60.210938 7.222656 C 61.082031 6.667969 62.027344 6.347656 63.292969 6.269531 L 63.292969 11.195312 C 63.054688 11.117188 62.738281 11.035156 62.425781 11.035156 C 62.109375 11.035156 61.710938 10.957031 61.238281 10.957031 C 60.132812 10.957031 59.421875 11.277344 59.027344 11.832031 C 58.632812 12.386719 58.394531 13.578125 58.394531 15.328125 L 58.394531 31.0625 L 53.890625 31.0625 Z M 53.890625 30.984375 "></path><path style=" stroke:none;fill-rule:nonzero;fill:rgb(100%,100%,100%);fill-opacity:1;" d="M 65.902344 30.984375 L 65.902344 6.585938 L 70.167969 6.585938 L 70.167969 9.605469 C 71.035156 8.496094 71.828125 7.699219 72.617188 7.144531 C 73.40625 6.585938 74.117188 6.269531 74.828125 6.269531 C 75.699219 6.269531 76.488281 6.585938 77.042969 7.144531 C 77.675781 7.699219 78.070312 8.574219 78.304688 9.6875 C 79.175781 8.574219 79.964844 7.777344 80.835938 7.222656 C 81.625 6.667969 82.414062 6.347656 83.046875 6.347656 C 84.390625 6.347656 85.417969 6.90625 85.972656 8.015625 C 86.523438 9.128906 86.839844 11.035156 86.839844 13.816406 L 86.839844 31.0625 L 82.335938 31.0625 L 82.335938 13.578125 C 82.335938 12.46875 82.179688 11.753906 81.941406 11.277344 C 81.703125 10.796875 81.308594 10.558594 80.675781 10.558594 C 80.359375 10.558594 80.042969 10.71875 79.648438 10.957031 C 79.253906 11.195312 78.9375 11.671875 78.542969 12.148438 L 78.542969 30.902344 L 74.039062 30.902344 L 74.039062 13.578125 C 74.039062 12.46875 73.882812 11.753906 73.644531 11.277344 C 73.40625 10.796875 73.011719 10.558594 72.378906 10.558594 C 72.0625 10.558594 71.667969 10.71875 71.351562 10.957031 C 70.957031 11.277344 70.640625 11.671875 70.246094 12.148438 L 70.246094 30.902344 L 65.902344 30.902344 Z M 65.902344 30.984375 "></path><path style=" stroke:none;fill-rule:nonzero;fill:rgb(100%,100%,100%);fill-opacity:1;" d="M 104.621094 22.480469 L 104.621094 23.910156 C 104.621094 26.292969 103.988281 28.121094 102.800781 29.472656 C 101.617188 30.824219 99.878906 31.460938 97.746094 31.460938 C 95.53125 31.460938 93.871094 30.746094 92.765625 29.3125 C 91.660156 27.882812 91.105469 25.738281 91.105469 22.796875 L 91.105469 14.929688 C 91.105469 11.992188 91.660156 9.765625 92.765625 8.414062 C 93.871094 6.984375 95.609375 6.269531 97.980469 6.269531 C 100.273438 6.269531 102.011719 7.0625 103.117188 8.652344 C 104.222656 10.242188 104.855469 12.707031 104.855469 15.964844 L 104.855469 19.621094 L 95.609375 19.621094 L 95.609375 24.226562 C 95.609375 25.421875 95.769531 26.214844 96.164062 26.769531 C 96.558594 27.328125 97.113281 27.566406 97.902344 27.566406 C 98.691406 27.566406 99.246094 27.328125 99.640625 26.769531 C 100.035156 26.214844 100.195312 25.421875 100.195312 24.226562 L 100.195312 22.480469 Z M 95.691406 13.421875 L 95.691406 15.804688 L 100.273438 15.804688 L 100.273438 13.421875 C 100.273438 12.230469 100.117188 11.433594 99.71875 10.878906 C 99.324219 10.320312 98.773438 10.082031 97.980469 10.082031 C 97.191406 10.082031 96.558594 10.320312 96.242188 10.878906 C 95.925781 11.433594 95.691406 12.230469 95.691406 13.421875 Z M 95.691406 13.421875 "></path><path style=" stroke:none;fill-rule:nonzero;fill:rgb(100%,100%,100%);fill-opacity:1;" d="M 109.519531 23.59375 L 109.519531 10.402344 L 106.910156 10.402344 L 106.910156 6.585938 L 109.519531 6.585938 L 109.519531 0.0703125 L 114.023438 0.0703125 L 114.023438 6.585938 L 117.261719 6.585938 L 117.261719 10.402344 L 114.023438 10.402344 L 114.023438 23.832031 C 114.023438 25.261719 114.179688 26.214844 114.417969 26.691406 C 114.65625 27.089844 115.128906 27.328125 115.839844 27.328125 C 116.078125 27.328125 116.472656 27.328125 117.023438 27.246094 C 117.105469 27.246094 117.183594 27.246094 117.261719 27.246094 L 117.261719 30.902344 C 116.867188 31.0625 116.472656 31.140625 115.996094 31.222656 C 115.601562 31.300781 115.128906 31.300781 114.734375 31.300781 C 112.679688 31.300781 111.335938 30.746094 110.546875 29.710938 C 109.753906 28.679688 109.519531 26.613281 109.519531 23.59375 Z M 109.519531 23.59375 "></path></g><g id="surface8" clip-path="url(#clip1)"><path style=" stroke:none;fill-rule:nonzero;fill:rgb(89.803922%,42.745098%,27.843137%);fill-opacity:1;" d="M 119.160156 24.308594 L 123.109375 23.988281 L 123.109375 24.226562 C 123.109375 25.339844 123.265625 26.292969 123.664062 26.851562 C 124.058594 27.484375 124.53125 27.722656 125.242188 27.722656 C 125.796875 27.722656 126.269531 27.484375 126.664062 27.007812 C 127.058594 26.53125 127.21875 25.976562 127.21875 25.261719 C 127.21875 24.546875 126.980469 23.832031 126.507812 23.035156 C 126.03125 22.242188 125.085938 21.207031 123.664062 19.777344 C 121.925781 18.03125 120.816406 16.679688 120.34375 15.644531 C 119.871094 14.613281 119.632812 13.5 119.632812 12.230469 C 119.632812 10.320312 120.105469 8.890625 121.132812 7.859375 C 122.160156 6.824219 123.582031 6.347656 125.480469 6.347656 C 127.21875 6.347656 128.640625 6.90625 129.667969 8.015625 C 130.695312 9.128906 131.25 10.71875 131.328125 12.707031 L 127.375 13.023438 C 127.296875 11.910156 127.140625 11.117188 126.824219 10.640625 C 126.507812 10.164062 126.03125 9.925781 125.402344 9.925781 C 124.769531 9.925781 124.375 10.082031 124.058594 10.402344 C 123.742188 10.71875 123.582031 11.277344 123.582031 11.910156 C 123.582031 13.183594 124.53125 14.691406 126.347656 16.519531 L 126.507812 16.679688 C 128.402344 18.507812 129.667969 20.015625 130.378906 21.207031 C 131.011719 22.402344 131.328125 23.75 131.328125 25.101562 C 131.328125 27.007812 130.773438 28.519531 129.667969 29.710938 C 128.5625 30.902344 127.058594 31.460938 125.320312 31.460938 C 123.347656 31.460938 121.765625 30.824219 120.738281 29.632812 C 119.710938 28.441406 119.238281 26.613281 119.160156 24.308594 Z M 119.160156 24.308594 "></path><path style=" stroke:none;fill-rule:nonzero;fill:rgb(89.803922%,42.745098%,27.843137%);fill-opacity:1;" d="M 143.574219 30.984375 L 143.101562 28.519531 C 142.46875 29.394531 141.757812 30.109375 140.96875 30.585938 C 140.175781 31.0625 139.308594 31.300781 138.4375 31.300781 C 137.015625 31.300781 135.832031 30.824219 134.960938 29.789062 C 134.09375 28.757812 133.699219 27.40625 133.699219 25.578125 C 133.699219 23.273438 134.410156 21.207031 135.910156 19.460938 C 137.410156 17.710938 139.78125 16.121094 143.023438 14.613281 L 143.023438 13.261719 C 143.023438 12.148438 142.863281 11.355469 142.46875 10.796875 C 142.152344 10.320312 141.519531 10.003906 140.808594 10.003906 C 140.097656 10.003906 139.464844 10.320312 138.992188 10.878906 C 138.519531 11.433594 138.28125 12.230469 138.28125 13.261719 L 134.015625 13.261719 C 134.171875 11.035156 134.882812 9.289062 136.148438 8.097656 C 137.410156 6.824219 139.148438 6.269531 141.285156 6.269531 C 143.496094 6.269531 145.15625 6.90625 146.105469 8.175781 C 147.050781 9.449219 147.605469 11.59375 147.605469 14.453125 L 147.605469 25.660156 C 147.605469 26.769531 147.605469 27.804688 147.683594 28.679688 C 147.761719 29.550781 147.84375 30.347656 148 30.984375 Z M 143.023438 18.425781 C 141.363281 19.222656 140.097656 20.175781 139.308594 21.128906 C 138.519531 22.082031 138.121094 23.195312 138.121094 24.386719 C 138.121094 25.261719 138.28125 25.898438 138.675781 26.375 C 139.070312 26.851562 139.546875 27.089844 140.175781 27.089844 C 140.652344 27.089844 141.125 26.929688 141.597656 26.613281 C 142.074219 26.292969 142.546875 25.816406 143.023438 25.183594 Z M 143.023438 18.425781 "></path></g></defs><g id="surface1"><use xlink:href="#surface5"></use><use xlink:href="#surface8"></use></g></svg>